<svg xmlns="http://www.w3.org/2000/svg" xmlns:xlink="http://www.w3.org/1999/xlink" width="40" zoomAndPan="magnify" viewBox="0 0 30 30.000001" height="40" preserveAspectRatio="xMidYMid meet" version="1.0"><metadata/><defs><clipPath id="8d02338a02"><path d="M 0.484375 0 L 29.515625 0 L 29.515625 29.03125 L 0.484375 29.03125 Z M 0.484375 0 " clip-rule="nonzero"/></clipPath></defs><g clip-path="url(#8d02338a02)"><path fill="#475569" d="M 28.5 23.101562 L 23.808594 18.410156 C 22.675781 17.28125 20.957031 17.109375 19.632812 17.867188 L 18.128906 16.363281 C 19.570312 14.628906 20.445312 12.40625 20.445312 9.980469 C 20.445312 4.476562 15.964844 0 10.464844 0 C 4.960938 0 0.484375 4.476562 0.484375 9.980469 C 0.484375 15.480469 4.960938 19.960938 10.464844 19.960938 C 12.890625 19.960938 15.113281 19.085938 16.84375 17.644531 L 18.347656 19.148438 C 17.589844 20.472656 17.761719 22.191406 18.894531 23.324219 L 23.585938 28.015625 C 24.242188 28.671875 25.113281 29.03125 26.042969 29.03125 C 27.957031 29.03125 29.515625 27.472656 29.515625 25.558594 C 29.515625 24.632812 29.15625 23.757812 28.5 23.101562 Z M 2.296875 9.980469 C 2.296875 5.476562 5.960938 1.816406 10.464844 1.816406 C 14.964844 1.816406 18.628906 5.476562 18.628906 9.980469 C 18.628906 14.484375 14.964844 18.144531 10.464844 18.144531 C 5.960938 18.144531 2.296875 14.484375 2.296875 9.980469 Z M 26.042969 27.21875 C 25.605469 27.21875 25.179688 27.039062 24.871094 26.730469 L 20.175781 22.039062 C 19.53125 21.394531 19.53125 20.339844 20.175781 19.695312 C 20.5 19.371094 20.925781 19.210938 21.351562 19.210938 C 21.777344 19.210938 22.199219 19.371094 22.523438 19.695312 L 27.214844 24.386719 C 27.523438 24.695312 27.703125 25.121094 27.703125 25.558594 C 27.703125 26.472656 26.957031 27.21875 26.042969 27.21875 Z M 26.042969 27.21875 " fill-opacity="1" fill-rule="nonzero"/></g><path fill="#475569" d="M 4.113281 9.980469 L 5.925781 9.980469 C 5.925781 7.480469 7.960938 5.445312 10.464844 5.445312 L 10.464844 3.628906 C 6.960938 3.628906 4.113281 6.480469 4.113281 9.980469 Z M 4.113281 9.980469 " fill-opacity="1" fill-rule="nonzero"/></svg>