<svg xmlns="http://www.w3.org/2000/svg" xmlns:xlink="http://www.w3.org/1999/xlink" width="40" zoomAndPan="magnify" viewBox="0 0 30 30.000001" height="40" preserveAspectRatio="xMidYMid meet" version="1.0"><metadata/><defs><clipPath id="27d1e4dd86"><path d="M 1 1.324219 L 29 1.324219 L 29 27.453125 L 1 27.453125 Z M 1 1.324219 " clip-rule="nonzero"/></clipPath><clipPath id="f87c8debad"><path d="M 0.484375 13 L 29.515625 13 L 29.515625 16 L 0.484375 16 Z M 0.484375 13 " clip-rule="nonzero"/></clipPath></defs><g clip-path="url(#27d1e4dd86)"><path fill="#475569" d="M 1.765625 2.292969 C 1.765625 1.734375 2.21875 1.28125 2.78125 1.28125 L 10.070312 1.28125 C 10.628906 1.28125 11.085938 1.734375 11.085938 2.292969 C 11.085938 2.851562 10.628906 3.304688 10.070312 3.304688 L 3.792969 3.304688 L 3.792969 9.585938 C 3.792969 10.144531 3.339844 10.597656 2.78125 10.597656 C 2.21875 10.597656 1.765625 10.144531 1.765625 9.585938 Z M 18.78125 2.292969 C 18.78125 1.734375 19.234375 1.28125 19.792969 1.28125 L 27.085938 1.28125 C 27.644531 1.28125 28.097656 1.734375 28.097656 2.292969 L 28.097656 9.585938 C 28.097656 10.144531 27.644531 10.597656 27.085938 10.597656 C 26.527344 10.597656 26.074219 10.144531 26.074219 9.585938 L 26.074219 3.304688 L 19.792969 3.304688 C 19.234375 3.304688 18.78125 2.851562 18.78125 2.292969 Z M 2.78125 18.292969 C 3.339844 18.292969 3.792969 18.75 3.792969 19.308594 L 3.792969 25.585938 L 10.070312 25.585938 C 10.628906 25.585938 11.085938 26.039062 11.085938 26.597656 C 11.085938 27.160156 10.628906 27.613281 10.070312 27.613281 L 2.78125 27.613281 C 2.21875 27.613281 1.765625 27.160156 1.765625 26.597656 L 1.765625 19.308594 C 1.765625 18.75 2.21875 18.292969 2.78125 18.292969 Z M 27.085938 18.292969 C 27.644531 18.292969 28.097656 18.75 28.097656 19.308594 L 28.097656 21.199219 C 28.097656 21.757812 27.644531 22.210938 27.085938 22.210938 C 26.527344 22.210938 26.074219 21.757812 26.074219 21.199219 L 26.074219 19.308594 C 26.074219 18.75 26.527344 18.292969 27.085938 18.292969 Z M 27.085938 24.234375 C 27.644531 24.234375 28.097656 24.691406 28.097656 25.25 L 28.097656 26.597656 C 28.097656 27.160156 27.644531 27.613281 27.085938 27.613281 L 19.792969 27.613281 C 19.234375 27.613281 18.78125 27.160156 18.78125 26.597656 C 18.78125 26.039062 19.234375 25.585938 19.792969 25.585938 L 26.074219 25.585938 L 26.074219 25.25 C 26.074219 24.691406 26.527344 24.234375 27.085938 24.234375 Z M 27.085938 24.234375 " fill-opacity="1" fill-rule="evenodd"/></g><g clip-path="url(#f87c8debad)"><path fill="#475569" d="M 0.417969 14.445312 C 0.417969 13.886719 0.871094 13.433594 1.429688 13.433594 L 28.4375 13.433594 C 28.996094 13.433594 29.449219 13.886719 29.449219 14.445312 C 29.449219 15.003906 28.996094 15.460938 28.4375 15.460938 L 1.429688 15.460938 C 0.871094 15.460938 0.417969 15.003906 0.417969 14.445312 Z M 0.417969 14.445312 " fill-opacity="1" fill-rule="evenodd"/></g></svg>