<svg xmlns="http://www.w3.org/2000/svg" xmlns:xlink="http://www.w3.org/1999/xlink" width="40" zoomAndPan="magnify" viewBox="0 0 30 30.000001" height="40" preserveAspectRatio="xMidYMid meet" version="1.0"><metadata/><defs><clipPath id="041f8ff214"><path d="M 11 2.902344 L 29.515625 2.902344 L 29.515625 18 L 11 18 Z M 11 2.902344 " clip-rule="nonzero"/></clipPath><clipPath id="800ba9bb03"><path d="M 0.574219 11 L 19 11 L 19 26.128906 L 0.574219 26.128906 Z M 0.574219 11 " clip-rule="nonzero"/></clipPath></defs><g clip-path="url(#041f8ff214)"><path fill="#475569" d="M 29.132812 9.597656 L 22.144531 3.210938 C 21.878906 2.96875 21.496094 2.90625 21.164062 3.050781 C 20.839844 3.195312 20.636719 3.503906 20.636719 3.863281 L 20.636719 6.839844 L 12.328125 6.839844 C 11.835938 6.839844 11.4375 7.242188 11.4375 7.730469 L 11.4375 12.773438 C 11.4375 13.265625 11.835938 13.664062 12.328125 13.664062 L 20.636719 13.664062 L 20.636719 16.546875 C 20.628906 16.636719 20.636719 16.730469 20.65625 16.824219 C 20.734375 17.207031 21.050781 17.484375 21.453125 17.519531 C 21.472656 17.519531 21.492188 17.523438 21.515625 17.523438 C 21.527344 17.523438 21.535156 17.523438 21.546875 17.523438 C 21.65625 17.523438 21.765625 17.503906 21.871094 17.460938 C 21.992188 17.414062 22.101562 17.339844 22.1875 17.246094 L 29.128906 10.902344 C 29.3125 10.742188 29.417969 10.503906 29.417969 10.25 C 29.417969 9.996094 29.3125 9.761719 29.132812 9.597656 Z M 21.535156 11.875 L 13.226562 11.875 L 13.226562 8.621094 L 21.535156 8.621094 C 22.027344 8.621094 22.425781 8.222656 22.425781 7.730469 L 22.425781 5.886719 L 27.203125 10.25 L 22.425781 14.613281 L 22.425781 12.769531 C 22.425781 12.277344 22.027344 11.875 21.535156 11.875 Z M 21.535156 11.875 " fill-opacity="1" fill-rule="nonzero"/></g><g clip-path="url(#800ba9bb03)"><path fill="#475569" d="M 17.960938 15.445312 L 9.652344 15.445312 L 9.652344 12.464844 C 9.652344 12.113281 9.457031 11.804688 9.140625 11.660156 C 8.8125 11.511719 8.429688 11.570312 8.15625 11.808594 C 7.742188 12.171875 7.324219 12.535156 6.90625 12.902344 C 6.5 13.257812 6.09375 13.613281 5.691406 13.96875 L 4.4375 15.066406 C 3.546875 15.851562 2.65625 16.632812 1.765625 17.414062 L 0.875 18.195312 C 0.6875 18.355469 0.582031 18.59375 0.582031 18.851562 C 0.582031 19.109375 0.6875 19.351562 0.871094 19.511719 C 1.285156 19.871094 1.695312 20.230469 2.105469 20.59375 C 2.519531 20.953125 2.929688 21.3125 3.339844 21.675781 L 4.617188 22.796875 C 5.5 23.570312 6.382812 24.34375 7.265625 25.117188 L 8.117188 25.863281 C 8.230469 25.976562 8.371094 26.058594 8.527344 26.097656 C 8.605469 26.121094 8.6875 26.128906 8.765625 26.128906 C 8.894531 26.128906 9.019531 26.101562 9.136719 26.046875 C 9.457031 25.90625 9.652344 25.601562 9.652344 25.246094 L 9.652344 22.269531 L 17.960938 22.269531 C 18.453125 22.269531 18.855469 21.867188 18.855469 21.375 L 18.855469 16.335938 C 18.855469 15.84375 18.453125 15.445312 17.960938 15.445312 Z M 8.757812 17.226562 L 17.066406 17.226562 L 17.066406 20.480469 L 8.757812 20.480469 C 8.265625 20.480469 7.863281 20.878906 7.863281 21.371094 L 7.863281 23.273438 L 5.632812 21.316406 C 4.746094 20.535156 3.855469 19.753906 2.96875 18.976562 L 2.828125 18.851562 L 5.796875 16.25 C 6.484375 15.644531 7.175781 15.039062 7.863281 14.433594 L 7.863281 16.332031 C 7.863281 16.824219 8.265625 17.226562 8.757812 17.226562 Z M 8.757812 17.226562 " fill-opacity="1" fill-rule="nonzero"/></g></svg>