<svg xmlns="http://www.w3.org/2000/svg" xmlns:xlink="http://www.w3.org/1999/xlink" width="40" zoomAndPan="magnify" viewBox="0 0 30 30.000001" height="40" preserveAspectRatio="xMidYMid meet" version="1.0"><metadata/><defs><clipPath id="32e6234da2"><path d="M 0.484375 0 L 29.515625 0 L 29.515625 29.03125 L 0.484375 29.03125 Z M 0.484375 0 " clip-rule="nonzero"/></clipPath></defs><g clip-path="url(#32e6234da2)"><path fill="#475569" d="M 15 0 C 6.996094 0 0.484375 6.511719 0.484375 14.515625 C 0.484375 22.519531 6.996094 29.03125 15 29.03125 C 23.003906 29.03125 29.515625 22.519531 29.515625 14.515625 C 29.515625 6.511719 23.003906 0 15 0 Z M 15 27.21875 C 7.996094 27.21875 2.296875 21.519531 2.296875 14.515625 C 2.296875 7.511719 7.996094 1.816406 15 1.816406 C 22.003906 1.816406 27.703125 7.511719 27.703125 14.515625 C 27.703125 21.519531 22.003906 27.21875 15 27.21875 Z M 20.957031 18.953125 C 20.78125 19.191406 20.507812 19.316406 20.230469 19.316406 C 20.042969 19.316406 19.851562 19.257812 19.6875 19.136719 L 14.457031 15.242188 C 14.226562 15.074219 14.09375 14.804688 14.09375 14.515625 L 14.09375 6.214844 C 14.09375 5.714844 14.5 5.308594 15 5.308594 C 15.5 5.308594 15.90625 5.714844 15.90625 6.214844 L 15.90625 14.058594 L 20.773438 17.683594 C 21.175781 17.980469 21.257812 18.550781 20.957031 18.953125 Z M 20.957031 18.953125 " fill-opacity="1" fill-rule="nonzero"/></g></svg>