<svg xmlns="http://www.w3.org/2000/svg" xmlns:xlink="http://www.w3.org/1999/xlink" width="40" zoomAndPan="magnify" viewBox="0 0 30 30.000001" height="40" preserveAspectRatio="xMidYMid meet" version="1.0"><metadata/><defs><clipPath id="9fdaf53876"><path d="M 0.484375 1.636719 L 29.515625 1.636719 L 29.515625 27.039062 L 0.484375 27.039062 Z M 0.484375 1.636719 " clip-rule="nonzero"/></clipPath></defs><g clip-path="url(#9fdaf53876)"><path fill="#475569" d="M 29.164062 23.773438 L 17.09375 2.847656 C 16.675781 2.125 15.894531 1.636719 15 1.636719 C 14.105469 1.636719 13.324219 2.125 12.90625 2.847656 L 0.835938 23.773438 C 0.628906 24.125 0.511719 24.539062 0.511719 24.976562 C 0.511719 26.308594 1.59375 27.390625 2.925781 27.390625 L 27.074219 27.390625 C 28.40625 27.390625 29.488281 26.308594 29.488281 24.976562 C 29.488281 24.539062 29.371094 24.125 29.164062 23.773438 Z M 2.925781 24.980469 L 14.996094 4.050781 L 15 4.050781 L 15 4.054688 L 27.074219 24.976562 Z M 15 19.34375 C 14.113281 19.34375 13.390625 20.0625 13.390625 20.953125 C 13.390625 21.84375 14.109375 22.5625 15 22.5625 C 15.890625 22.5625 16.609375 21.839844 16.609375 20.953125 C 16.609375 20.0625 15.890625 19.34375 15 19.34375 Z M 13.390625 12.097656 C 13.390625 12.191406 13.398438 12.28125 13.414062 12.371094 L 14.207031 17.0625 C 14.269531 17.445312 14.601562 17.734375 15 17.734375 C 15.398438 17.734375 15.730469 17.445312 15.792969 17.0625 L 16.585938 12.371094 C 16.601562 12.28125 16.609375 12.191406 16.609375 12.097656 C 16.609375 11.210938 15.890625 10.488281 15 10.488281 C 14.113281 10.488281 13.390625 11.210938 13.390625 12.097656 Z M 13.390625 12.097656 " fill-opacity="1" fill-rule="evenodd"/></g></svg>