<svg xmlns="http://www.w3.org/2000/svg" xmlns:xlink="http://www.w3.org/1999/xlink" width="40" zoomAndPan="magnify" viewBox="0 0 30 30.000001" height="40" preserveAspectRatio="xMidYMid meet" version="1.0"><metadata/><defs><clipPath id="2709769162"><path d="M 2.375 2 L 27.78125 2 L 27.78125 27.359375 L 2.375 27.359375 Z M 2.375 2 " clip-rule="nonzero"/></clipPath></defs><g clip-path="url(#2709769162)"><path fill="#475569" d="M 26.097656 27.070312 C 25.742188 27.070312 25.390625 26.933594 25.117188 26.664062 L 2.917969 4.464844 C 2.375 3.921875 2.375 3.046875 2.917969 2.503906 C 3.460938 1.960938 4.335938 1.960938 4.878906 2.503906 L 27.078125 24.703125 C 27.621094 25.246094 27.621094 26.121094 27.078125 26.664062 C 26.808594 26.933594 26.457031 27.070312 26.097656 27.070312 Z M 26.097656 27.070312 " fill-opacity="1" fill-rule="nonzero"/><path fill="#475569" d="M 3.898438 27.070312 C 3.542969 27.070312 3.191406 26.933594 2.917969 26.664062 C 2.375 26.121094 2.375 25.246094 2.917969 24.703125 L 25.117188 2.503906 C 25.660156 1.960938 26.535156 1.960938 27.078125 2.503906 C 27.621094 3.046875 27.621094 3.921875 27.078125 4.464844 L 4.878906 26.664062 C 4.609375 26.933594 4.257812 27.070312 3.898438 27.070312 Z M 3.898438 27.070312 " fill-opacity="1" fill-rule="nonzero"/></g></svg>