<svg xmlns="http://www.w3.org/2000/svg" xmlns:xlink="http://www.w3.org/1999/xlink" width="40" zoomAndPan="magnify" viewBox="0 0 30 30.000001" height="40" preserveAspectRatio="xMidYMid meet" version="1.0"><metadata/><defs><clipPath id="0d807e7211"><path d="M 4.746094 0 L 25.070312 0 L 25.070312 29.03125 L 4.746094 29.03125 Z M 4.746094 0 " clip-rule="nonzero"/></clipPath></defs><g clip-path="url(#0d807e7211)"><path fill="#475569" d="M 22.683594 0 L 7.324219 0 C 5.925781 0 4.785156 1.140625 4.785156 2.539062 L 4.785156 26.492188 C 4.785156 27.890625 5.925781 29.03125 7.324219 29.03125 L 22.683594 29.03125 C 24.085938 29.03125 25.222656 27.890625 25.222656 26.492188 L 25.222656 2.539062 C 25.222656 1.140625 24.085938 0 22.683594 0 Z M 11.734375 23.140625 C 11.734375 23.738281 11.246094 24.226562 10.644531 24.226562 L 9.347656 24.226562 C 8.746094 24.226562 8.257812 23.738281 8.257812 23.140625 L 8.257812 22.355469 C 8.257812 21.753906 8.746094 21.265625 9.347656 21.265625 L 10.644531 21.265625 C 11.246094 21.265625 11.734375 21.753906 11.734375 22.355469 Z M 11.734375 18.785156 C 11.734375 19.386719 11.246094 19.875 10.644531 19.875 L 9.347656 19.875 C 8.746094 19.875 8.257812 19.386719 8.257812 18.785156 L 8.257812 18 C 8.257812 17.398438 8.746094 16.910156 9.347656 16.910156 L 10.644531 16.910156 C 11.246094 16.910156 11.734375 17.398438 11.734375 18 Z M 11.734375 14.429688 C 11.734375 15.03125 11.246094 15.519531 10.644531 15.519531 L 9.347656 15.519531 C 8.746094 15.519531 8.257812 15.03125 8.257812 14.429688 L 8.257812 13.644531 C 8.257812 13.042969 8.746094 12.554688 9.347656 12.554688 L 10.644531 12.554688 C 11.246094 12.554688 11.734375 13.042969 11.734375 13.644531 Z M 16.8125 23.140625 C 16.8125 23.738281 16.324219 24.226562 15.726562 24.226562 L 14.429688 24.226562 C 13.828125 24.226562 13.339844 23.738281 13.339844 23.140625 L 13.339844 22.355469 C 13.339844 21.753906 13.828125 21.265625 14.429688 21.265625 L 15.726562 21.265625 C 16.324219 21.265625 16.8125 21.753906 16.8125 22.355469 Z M 16.8125 18.785156 C 16.8125 19.386719 16.324219 19.875 15.726562 19.875 L 14.429688 19.875 C 13.828125 19.875 13.339844 19.386719 13.339844 18.785156 L 13.339844 18 C 13.339844 17.398438 13.828125 16.910156 14.429688 16.910156 L 15.726562 16.910156 C 16.324219 16.910156 16.8125 17.398438 16.8125 18 Z M 16.8125 14.429688 C 16.8125 15.03125 16.324219 15.519531 15.726562 15.519531 L 14.429688 15.519531 C 13.828125 15.519531 13.339844 15.03125 13.339844 14.429688 L 13.339844 13.644531 C 13.339844 13.042969 13.828125 12.554688 14.429688 12.554688 L 15.726562 12.554688 C 16.324219 12.554688 16.8125 13.042969 16.8125 13.644531 Z M 21.894531 23.140625 C 21.894531 23.738281 21.40625 24.226562 20.804688 24.226562 L 19.507812 24.226562 C 18.90625 24.226562 18.417969 23.738281 18.417969 23.140625 L 18.417969 18 C 18.417969 17.398438 18.90625 16.910156 19.507812 16.910156 L 20.804688 16.910156 C 21.40625 16.910156 21.894531 17.398438 21.894531 18 Z M 21.894531 14.429688 C 21.894531 15.03125 21.40625 15.519531 20.804688 15.519531 L 19.507812 15.519531 C 18.90625 15.519531 18.417969 15.03125 18.417969 14.429688 L 18.417969 13.644531 C 18.417969 13.042969 18.90625 12.554688 19.507812 12.554688 L 20.804688 12.554688 C 21.40625 12.554688 21.894531 13.042969 21.894531 13.644531 Z M 22.816406 6.789062 C 22.816406 8.1875 21.675781 9.328125 20.277344 9.328125 L 9.878906 9.328125 C 8.476562 9.328125 7.335938 8.1875 7.335938 6.789062 L 7.335938 5.273438 C 7.335938 3.875 8.476562 2.734375 9.878906 2.734375 L 20.277344 2.734375 C 21.675781 2.734375 22.816406 3.875 22.816406 5.273438 Z M 22.816406 6.789062 " fill-opacity="1" fill-rule="nonzero"/></g></svg>