<svg xmlns="http://www.w3.org/2000/svg" xmlns:xlink="http://www.w3.org/1999/xlink" width="40" zoomAndPan="magnify" viewBox="0 0 30 30.000001" height="40" preserveAspectRatio="xMidYMid meet" version="1.0"><metadata/><defs><clipPath id="3240e15242"><path d="M 0.484375 4.84375 L 29.515625 4.84375 L 29.515625 24.441406 L 0.484375 24.441406 Z M 0.484375 4.84375 " clip-rule="nonzero"/></clipPath></defs><g clip-path="url(#3240e15242)"><path fill="#475569" d="M 27.566406 14.511719 L 27.375 14.511719 L 25.925781 10.613281 C 25.632812 9.871094 24.894531 9.355469 24.085938 9.355469 L 19.1875 9.355469 L 19.1875 6.777344 C 19.1875 5.714844 18.320312 4.84375 17.253906 4.84375 L 2.429688 4.84375 C 1.367188 4.84375 0.496094 5.714844 0.496094 6.777344 L 0.496094 20.3125 C 0.496094 21.378906 1.367188 22.246094 2.429688 22.246094 L 3.816406 22.246094 C 4.105469 23.34375 5.105469 24.179688 6.296875 24.179688 C 7.070312 24.179688 7.75 23.828125 8.230469 23.3125 C 8.714844 23.859375 9.390625 24.179688 10.164062 24.179688 C 11.359375 24.179688 12.355469 23.34375 12.648438 22.246094 L 21.1875 22.246094 C 21.476562 23.34375 22.476562 24.179688 23.667969 24.179688 C 24.859375 24.179688 25.859375 23.34375 26.148438 22.246094 L 27.566406 22.246094 C 28.632812 22.246094 29.5 21.378906 29.5 20.3125 L 29.5 16.445312 C 29.5 15.382812 28.632812 14.511719 27.566406 14.511719 Z M 6.296875 22.890625 C 5.589844 22.890625 5.007812 22.3125 5.007812 21.601562 C 5.007812 20.894531 5.589844 20.3125 6.296875 20.3125 C 7.007812 20.3125 7.585938 20.894531 7.585938 21.601562 C 7.585938 22.3125 7.007812 22.890625 6.296875 22.890625 Z M 10.164062 22.890625 C 9.457031 22.890625 8.875 22.3125 8.875 21.601562 C 8.875 20.894531 9.457031 20.3125 10.164062 20.3125 C 10.875 20.3125 11.453125 20.894531 11.453125 21.601562 C 11.453125 22.3125 10.875 22.890625 10.164062 22.890625 Z M 17.898438 20.957031 L 12.648438 20.957031 C 12.355469 19.863281 11.359375 19.023438 10.164062 19.023438 C 9.390625 19.023438 8.714844 19.378906 8.230469 19.894531 C 7.75 19.347656 7.070312 19.023438 6.296875 19.023438 C 5.105469 19.023438 4.105469 19.863281 3.816406 20.957031 L 2.429688 20.957031 C 2.078125 20.957031 1.785156 20.667969 1.785156 20.3125 L 1.785156 17.734375 L 17.898438 17.734375 Z M 17.898438 16.445312 L 1.785156 16.445312 L 1.785156 6.777344 C 1.785156 6.425781 2.078125 6.132812 2.429688 6.132812 L 17.253906 6.132812 C 17.609375 6.132812 17.898438 6.425781 17.898438 6.777344 Z M 22.410156 10.644531 L 24.085938 10.644531 C 24.34375 10.644531 24.601562 10.808594 24.699219 11.066406 L 25.988281 14.511719 L 22.410156 14.511719 Z M 23.699219 22.890625 C 22.992188 22.890625 22.410156 22.3125 22.410156 21.601562 C 22.410156 20.894531 22.992188 20.3125 23.699219 20.3125 C 24.410156 20.3125 24.988281 20.894531 24.988281 21.601562 C 24.988281 22.3125 24.410156 22.890625 23.699219 22.890625 Z M 28.210938 17.089844 L 26.921875 17.089844 C 26.570312 17.089844 26.277344 17.382812 26.277344 17.734375 C 26.277344 18.089844 26.570312 18.378906 26.921875 18.378906 L 28.210938 18.378906 L 28.210938 20.3125 C 28.210938 20.667969 27.921875 20.957031 27.566406 20.957031 L 26.183594 20.957031 C 25.890625 19.863281 24.894531 19.023438 23.699219 19.023438 C 22.507812 19.023438 21.507812 19.863281 21.21875 20.957031 L 19.1875 20.957031 L 19.1875 10.644531 L 21.121094 10.644531 L 21.121094 15.15625 C 21.121094 15.511719 21.414062 15.800781 21.765625 15.800781 L 27.566406 15.800781 C 27.921875 15.800781 28.210938 16.09375 28.210938 16.445312 Z M 28.210938 17.089844 " fill-opacity="1" fill-rule="nonzero"/></g></svg>