<svg xmlns="http://www.w3.org/2000/svg" xmlns:xlink="http://www.w3.org/1999/xlink" width="40" zoomAndPan="magnify" viewBox="0 0 30 30.000001" height="40" preserveAspectRatio="xMidYMid meet" version="1.0"><metadata/><defs><clipPath id="e56fc2f7c7"><path d="M 0.484375 0 L 29.515625 0 L 29.515625 29.03125 L 0.484375 29.03125 Z M 0.484375 0 " clip-rule="nonzero"/></clipPath></defs><g clip-path="url(#e56fc2f7c7)"><path fill="#ffde59" d="M 26.40625 10.515625 L 26.40625 10.367188 C 26.40625 4.652344 21.753906 0 16.035156 0 L 13.964844 0 C 8.246094 0 3.59375 4.652344 3.59375 10.367188 L 3.59375 10.515625 C 1.8125 10.980469 0.484375 12.589844 0.484375 14.515625 L 0.484375 16.589844 C 0.484375 18.878906 2.34375 20.738281 4.632812 20.738281 L 6.703125 20.738281 C 7.277344 20.738281 7.742188 20.273438 7.742188 19.699219 L 7.742188 11.40625 C 7.742188 10.832031 7.277344 10.367188 6.703125 10.367188 L 5.667969 10.367188 C 5.667969 5.796875 9.390625 2.074219 13.964844 2.074219 L 16.035156 2.074219 C 20.609375 2.074219 24.332031 5.796875 24.332031 10.367188 L 23.296875 10.367188 C 22.722656 10.367188 22.257812 10.832031 22.257812 11.40625 L 22.257812 19.699219 C 22.257812 20.273438 22.722656 20.738281 23.296875 20.738281 L 24.28125 20.738281 C 23.972656 23.980469 22.222656 24.6875 21.015625 24.839844 C 20.574219 23.660156 19.445312 22.8125 18.109375 22.8125 C 16.394531 22.8125 15 24.207031 15 25.921875 C 15 27.636719 16.394531 29.03125 18.109375 29.03125 C 19.476562 29.03125 20.628906 28.140625 21.046875 26.910156 C 24.261719 26.585938 26.125 24.382812 26.375 20.597656 C 28.175781 20.144531 29.515625 18.527344 29.515625 16.589844 L 29.515625 14.515625 C 29.515625 12.589844 28.1875 10.980469 26.40625 10.515625 Z M 5.667969 18.664062 L 4.632812 18.664062 C 3.488281 18.664062 2.558594 17.734375 2.558594 16.589844 L 2.558594 14.515625 C 2.558594 13.371094 3.488281 12.441406 4.632812 12.441406 L 5.667969 12.441406 Z M 18.109375 26.957031 C 17.539062 26.957031 17.074219 26.492188 17.074219 25.921875 C 17.074219 25.351562 17.539062 24.886719 18.109375 24.886719 C 18.683594 24.886719 19.148438 25.351562 19.148438 25.921875 C 19.148438 26.492188 18.683594 26.957031 18.109375 26.957031 Z M 27.441406 16.589844 C 27.441406 17.734375 26.511719 18.664062 25.367188 18.664062 L 24.332031 18.664062 L 24.332031 12.441406 L 25.367188 12.441406 C 26.511719 12.441406 27.441406 13.371094 27.441406 14.515625 Z M 27.441406 16.589844 " fill-opacity="1" fill-rule="nonzero"/></g></svg>